<?xml version="1.0" encoding="utf-8"?>
<!-- Generator: Adobe Illustrator 16.0.0, SVG Export Plug-In . SVG Version: 6.00 Build 0)  -->
<!DOCTYPE svg PUBLIC "-//W3C//DTD SVG 1.1//EN" "http://www.w3.org/Graphics/SVG/1.1/DTD/svg11.dtd">
<svg version="1.1" id="Layer_1" xmlns="http://www.w3.org/2000/svg" xmlns:xlink="http://www.w3.org/1999/xlink" x="0px" y="0px"
	 width="226.546px" height="210.838px" viewBox="0 0 226.546 210.838" enable-background="new 0 0 226.546 210.838"
	 xml:space="preserve">
<rect width="226.546" height="210.838"/>
<g>
	<defs>
		<rect id="SVGID_1_" width="226.546" height="210.838"/>
	</defs>
	<clipPath id="SVGID_2_">
		<use xlink:href="#SVGID_1_"  overflow="visible"/>
	</clipPath>
	<path clip-path="url(#SVGID_2_)" fill="#FFFFFF" d="M83.03,180.206c-1.113,0-1.649-0.92-1.627-2.729
		c0-1.809,0.599-2.729,1.584-2.729c0.728,0,1.188,0.46,1.402,1.112l1.338-0.32c-0.363-1.37-1.22-2.033-2.697-2.033
		c-1.97,0-3.104,1.443-3.104,3.97c0,2.525,1.134,3.972,3.104,3.972c1.413,0,2.419-0.686,2.879-2.023l-1.37-0.364
		C84.1,179.971,83.694,180.206,83.03,180.206"/>
</g>
<path fill="#FFFFFF" d="M91.309,178.451l0.91-3.361h0.022l0.866,3.361H91.309z M91.288,173.603l-2.227,7.737h1.467l0.46-1.669h2.441
	l0.428,1.669h1.466l-2.194-7.737H91.288z"/>
<polygon fill="#FFFFFF" points="97.867,174.844 99.89,174.844 99.89,181.34 101.367,181.34 101.367,174.844 103.39,174.844 
	103.39,173.603 97.867,173.603 "/>
<polygon fill="#FFFFFF" points="108.758,177.937 111.402,177.937 111.402,176.694 108.758,176.694 108.758,174.854 112.397,174.854 
	112.397,173.612 107.281,173.612 107.281,181.341 112.516,181.341 112.516,180.099 108.758,180.099 "/>
<g>
	<defs>
		<rect id="SVGID_3_" width="226.546" height="210.838"/>
	</defs>
	<clipPath id="SVGID_4_">
		<use xlink:href="#SVGID_3_"  overflow="visible"/>
	</clipPath>
	<path clip-path="url(#SVGID_4_)" fill="#FFFFFF" d="M119.104,176.996h-1.093v-2.185h1.35c0.812,0,1.251,0.364,1.251,1.091
		C120.612,176.632,120.259,176.996,119.104,176.996 M122.09,175.902c-0.011-1.271-0.717-2.29-2.473-2.29h-3.083v7.729h1.478v-3.146
		h1.273l1.456,3.146h1.638l-1.702-3.447C121.619,177.627,122.102,176.855,122.09,175.902"/>
</g>
<rect x="126.655" y="173.612" fill="#FFFFFF" width="1.477" height="7.728"/>
<polygon fill="#FFFFFF" points="137.431,178.879 137.409,178.879 134.369,173.612 132.828,173.612 132.828,181.34 134.22,181.34 
	134.22,175.84 134.24,175.84 137.398,181.34 138.822,181.34 138.822,173.612 137.431,173.612 "/>
<g>
	<defs>
		<rect id="SVGID_5_" width="226.546" height="210.838"/>
	</defs>
	<clipPath id="SVGID_6_">
		<use xlink:href="#SVGID_5_"  overflow="visible"/>
	</clipPath>
	<path clip-path="url(#SVGID_6_)" fill="#FFFFFF" d="M146.051,178.676h1.469c-0.033,0.89-0.654,1.53-1.617,1.53
		c-1.028,0-1.639-1.027-1.639-2.654c0-1.712,0.535-2.804,1.627-2.804c0.771,0,1.198,0.32,1.553,1.092l1.371-0.364
		c-0.365-1.134-1.265-1.969-2.807-1.969c-2.471,0-3.22,2.119-3.22,4.088c0,2.184,0.973,3.854,3.072,3.854
		c0.812,0,1.39-0.214,2.011-0.899v0.792h1.071v-3.907h-2.892V178.676z"/>
	<path clip-path="url(#SVGID_6_)" fill="#FFFFFF" d="M115.005,42.673c3.007,0.038,4.873,0.19,10.433,0.877
		c2.704,0.342,5.218,0.57,6.665,0.57c1.828,0,2.742-0.304,3.351-1.028c-0.419,2.248-1.256,2.97-3.541,2.97
		c-1.371,0-2.894-0.303-6.321-1.256c-4.839-1.333-8.341-1.943-10.626-1.905L115.005,42.673z M114.966,42.139h20.603
		c-0.267,1.295-1.256,1.791-3.771,1.791c-1.104,0-3.122-0.227-7.466-0.799c-2.932-0.383-6.587-0.686-8.643-0.686h-0.724V42.139z
		 M114.966,41.645c3.504-0.076,7.464-0.42,11.463-0.99c2.779-0.38,4.15-0.533,5.406-0.533c2.476,0,3.542,0.533,3.732,1.79
		l-20.602-0.002V41.645z M121.82,40.197c8.683-2.209,8.683-2.209,9.94-2.209c2.437,0,3.274,0.648,3.692,2.972
		c-0.57-0.724-1.599-1.027-3.199-1.028c-1.331,0-3.616,0.19-5.901,0.456c-5.561,0.724-8.035,0.952-11.35,0.99l-0.001-0.266
		C116.642,41.149,119.534,40.769,121.82,40.197 M96.533,43.245h18.433l-0.001-0.114c3.009,0.114,5.484,0.532,10.511,1.865
		c3.656,0.99,5.142,1.294,6.398,1.294c2.703,0.002,3.731-1.066,3.885-4.151h0.038v-0.227h-0.038
		c-0.153-3.123-1.143-4.152-4.036-4.152c-1.067,0-2.323,0.267-6.247,1.259c-5.674,1.445-8.073,1.903-10.511,1.903l0.001-0.115
		l-18.434,0.001c-0.19,0-0.342,0.57-0.342,1.142C96.19,42.673,96.343,43.245,96.533,43.245"/>
	<path clip-path="url(#SVGID_6_)" fill="none" stroke="#FFFFFF" stroke-width="0.15" stroke-miterlimit="10" d="M115.005,42.673
		c3.007,0.038,4.873,0.19,10.433,0.877c2.704,0.342,5.218,0.57,6.665,0.57c1.828,0,2.742-0.304,3.351-1.028
		c-0.419,2.248-1.256,2.97-3.541,2.97c-1.371,0-2.894-0.303-6.321-1.256c-4.839-1.333-8.341-1.943-10.626-1.905L115.005,42.673z
		 M114.966,42.139h20.603c-0.267,1.295-1.256,1.791-3.771,1.791c-1.104,0-3.122-0.227-7.466-0.799
		c-2.932-0.383-6.587-0.686-8.643-0.686h-0.724V42.139z M114.966,41.645c3.504-0.076,7.464-0.42,11.463-0.99
		c2.779-0.38,4.15-0.533,5.406-0.533c2.476,0,3.542,0.533,3.732,1.79l-20.602-0.002V41.645z M121.82,40.197
		c8.683-2.209,8.683-2.209,9.94-2.209c2.437,0,3.274,0.648,3.692,2.972c-0.57-0.724-1.599-1.027-3.199-1.028
		c-1.331,0-3.616,0.19-5.901,0.456c-5.561,0.724-8.035,0.952-11.35,0.99l-0.001-0.266C116.642,41.149,119.534,40.769,121.82,40.197z
		 M96.533,43.245h18.433l-0.001-0.114c3.009,0.114,5.484,0.532,10.511,1.865c3.656,0.99,5.142,1.294,6.398,1.294
		c2.703,0.002,3.731-1.066,3.885-4.151h0.038v-0.227h-0.038c-0.153-3.123-1.143-4.152-4.036-4.152c-1.067,0-2.323,0.267-6.247,1.259
		c-5.674,1.445-8.073,1.903-10.511,1.903l0.001-0.115l-18.434,0.001c-0.19,0-0.342,0.57-0.342,1.142
		C96.19,42.673,96.343,43.245,96.533,43.245z"/>
	<path clip-path="url(#SVGID_6_)" fill="#FFFFFF" d="M123.317,154.118c0.363,0,0.606,0.243,0.606,0.608
		c0,0.323-0.243,0.565-0.606,0.565c-0.283,0-0.567-0.282-0.567-0.565C122.75,154.361,122.994,154.118,123.317,154.118
		 M127.607,154.159c0.363,0,0.605,0.243,0.605,0.567c0,0.323-0.242,0.565-0.605,0.565c-0.324,0-0.567-0.242-0.567-0.565
		C127.04,154.402,127.283,154.159,127.607,154.159 M131.978,154.159c0.362,0,0.605,0.243,0.605,0.605c0,0.326-0.243,0.57-0.605,0.57
		c-0.325,0-0.568-0.285-0.568-0.57C131.409,154.402,131.652,154.159,131.978,154.159 M94.955,155.494
		c2.225,0.77,11.006,1.175,25.531,1.213l12.664-0.038c2.669,0,2.669,0,3.234-0.69c0.446-0.525,0.649-1.132,0.649-1.819
		c0-1.375-0.931-2.428-2.104-2.469c0,0.771-0.404,1.254-1.012,1.254c-0.121,0-0.445-0.037-0.728-0.078
		c-1.053-0.122-3.723-0.283-5.099-0.283c-1.295,0-3.562,0.161-5.017,0.402c-0.405,0.041-0.851,0.081-1.132,0.081
		c-1.055,0-1.256-0.483-1.457-3.236c-0.852-0.201-0.852-0.201-2.43-0.201c-1.941,0-9.466,0.568-12.542,0.928
		c-4.611,0.568-6.999,1.458-9.347,3.481C95.522,154.604,95.198,154.969,94.955,155.494"/>
</g>
<polygon fill="#FFFFFF" points="62.239,88.815 60.615,88.815 52.388,70.887 44.274,88.815 42.688,88.815 34.348,61.942 
	39.518,61.942 44.538,78.851 51.671,61.678 53.218,61.678 60.427,78.813 65.409,61.942 70.504,61.942 "/>
<polygon fill="#FFFFFF" points="105.029,78.021 92.083,78.021 92.083,88.475 87.404,88.475 87.404,61.942 92.083,61.942 
	92.083,73.869 105.029,73.869 105.029,61.98 109.709,61.98 109.709,88.475 105.029,88.475 "/>
<g>
	<defs>
		<rect id="SVGID_7_" width="226.546" height="210.838"/>
	</defs>
	<clipPath id="SVGID_8_">
		<use xlink:href="#SVGID_7_"  overflow="visible"/>
	</clipPath>
	<path clip-path="url(#SVGID_8_)" fill="#FFFFFF" d="M139.903,84.776c5.133,0,9.133-4.114,9.133-9.511
		c0-5.434-3.812-9.549-9.133-9.549c-5.246,0-9.133,4.115-9.133,9.549C130.771,80.587,134.771,84.776,139.903,84.776 M139.865,61.489
		c8.229,0,14.192,5.775,14.192,13.701c0,7.812-6.077,13.7-14.192,13.7c-8.114,0-14.153-5.85-14.153-13.7
		C125.712,67.528,131.902,61.489,139.865,61.489"/>
</g>
<path fill="#FFFFFF" d="M175.102,79.456h8.076l-4.037-9.134L175.102,79.456z M171.139,88.476h-4.906l12.455-26.759h1.056
	l12.455,26.759h-5.021l-2.34-5.284H173.44L171.139,88.476z"/>
<polygon fill="#FFFFFF" points="35.8,102.445 37.272,102.445 53.689,119.542 53.689,102.596 58.371,102.596 58.371,129.315 
	57.125,129.315 40.48,112.673 40.48,129.128 35.8,129.128 "/>
<polygon fill="#FFFFFF" points="74.679,102.596 91.926,102.596 91.926,106.897 79.358,106.897 79.358,114.332 90.757,114.332 
	90.757,118.484 79.358,118.484 79.358,124.824 91.926,124.824 91.926,129.129 74.679,129.129 "/>
<polygon fill="#FFFFFF" points="109.442,102.596 114.122,102.596 114.122,124.824 126.69,124.824 126.69,129.129 109.442,129.129 
	"/>
<polygon fill="#FFFFFF" points="141.866,102.596 146.546,102.596 146.546,124.824 159.113,124.824 159.113,129.129 141.866,129.129 
	"/>
<polygon fill="#FFFFFF" points="192.104,102.596 182.367,118.636 182.367,129.129 177.648,129.129 177.648,118.597 167.912,102.596 
	173.309,102.596 180.063,114.332 186.819,102.596 "/>
</svg>
